<?xml version="1.0" encoding="UTF-8"?>
<svg id="default" xmlns="http://www.w3.org/2000/svg" viewBox="0 0 64 64">
  <defs>
    <style>
      .cls-1 {
        fill: #999;
      }

      .cls-1, .cls-2, .cls-3 {
        stroke-width: 0px;
      }

      .cls-2 {
        fill: #2be6ef;
      }

      .cls-4 {
        fill: none;
        stroke: #2be6ef;
        stroke-miterlimit: 10;
        stroke-width: 5px;
      }

      .cls-3 {
        fill: #23262f;
      }
    </style>
  </defs>
  <g id="clearExec_default">
    <g id="Layer_17" data-name="Layer 17">
      <g>
        <path class="cls-4" d="M54.2,33.99c.89-10.59-5.95-20.6-16.6-23.33-11.87-3.05-23.96,4.11-27,15.97-3.05,11.87,4.11,23.96,15.97,27,7.21,1.85,14.5-.06,19.8-4.51"/>
        <polygon class="cls-2" points="50.58 55.2 52.69 40.4 38.81 45.97 50.58 55.2"/>
      </g>
    </g>
    <g id="light-2" data-name="light">
      <polygon class="cls-3" points="32.93 4.67 47.97 4.67 37.42 25.37 47.97 25.37 21.58 61.52 30.78 36.27 17.89 36.27 32.93 4.67"/>
    </g>
    <g id="light-3" data-name="light">
      <polygon class="cls-1" points="31.88 2.59 46.92 2.59 36.38 23.29 46.92 23.29 21.53 59.43 29.74 34.18 16.85 34.18 31.88 2.59"/>
    </g>
  </g>
</svg>